<svg xmlns="http://www.w3.org/2000/svg" viewBox="0 0 32 32"><title>medical document</title><g id="document"><path d="M27.59,22.19,26,21V5.3A3.3,3.3,0,0,0,22.7,2H10.3A3.3,3.3,0,0,0,7,5.3V11H5a1,1,0,0,0-1,1V27.07A2.94,2.94,0,0,0,6.93,30H25.07A2.94,2.94,0,0,0,28,27.07V23A1,1,0,0,0,27.59,22.19ZM9,5.3A1.3,1.3,0,0,1,10.3,4H22.7A1.3,1.3,0,0,1,24,5.3V19.56L12.59,11.19A1,1,0,0,0,12,11H9ZM26,27.07a.93.93,0,0,1-.93.93H6.93A.93.93,0,0,1,6,27.07V13h5.67L26,23.51ZM12,8a1,1,0,0,1,1-1h7a1,1,0,0,1,0,2H13A1,1,0,0,1,12,8Zm9,3a1,1,0,0,1-1,1H17a1,1,0,0,1,0-2h3A1,1,0,0,1,21,11Z"/></g></svg>